<svg id="Layer_2" enable-background="new 0 0 512 512" viewBox="0 0 512 512" xmlns="http://www.w3.org/2000/svg">
  <path fill="white" d="m506.81 148.08c-7.31-75.72-66.47-135.58-141.13-142.79-72.95-7.05-146.41-7.05-219.36 0-74.66 7.21-133.82 67.07-141.13 142.79-6.92 71.78-6.92 144.06 0 215.83 7.3 75.72 66.46 135.58 141.12 142.8 72.95 7.05 146.41 7.05 219.36 0 74.66-7.21 133.82-67.07 141.12-142.8 6.94-71.77 6.94-144.05.02-215.83zm-147.29 256.08c-1.75 1.23-3.75 1.82-5.74 1.82-3.15 0-6.25-1.48-8.19-4.26l-89.8-127.95-89.37 127.96c-1.94 2.78-5.05 4.28-8.21 4.28-1.98 0-3.97-.58-5.72-1.8-4.53-3.16-5.63-9.4-2.47-13.92l93.54-133.93-93.53-133.26c-3.17-4.52-2.08-10.76 2.44-13.93s10.76-2.08 13.93 2.44l89.34 127.3 89.83-128.62c3.16-4.53 9.4-5.63 13.92-2.47 4.53 3.16 5.63 9.4 2.47 13.92l-94 134.59 93.98 133.91c3.19 4.51 2.1 10.75-2.42 13.92z"/>
</svg>
